<mxfile host="app.diagrams.net" modified="2021-12-28T14:37:09.866Z" agent="5.0 (Macintosh; Intel Mac OS X 10_15_7) AppleWebKit/537.36 (KHTML, like Gecko) Chrome/96.0.4664.110 Safari/537.36" etag="AU3ez6ODWZUndwOoKBlF" version="15.9.4" type="github" pages="2">
  <diagram id="8a3NZWTDR_gML0kNDieW" name="Page-1">
    <mxGraphModel dx="1368" dy="801" grid="1" gridSize="10" guides="1" tooltips="1" connect="1" arrows="1" fold="1" page="1" pageScale="1" pageWidth="827" pageHeight="1169" math="0" shadow="0">
      <root>
        <mxCell id="0" />
        <mxCell id="1" parent="0" />
        <mxCell id="uEfLk0wBRHDGrHvoji_M-27" style="edgeStyle=none;rounded=0;orthogonalLoop=1;jettySize=auto;html=1;exitX=1;exitY=0.5;exitDx=0;exitDy=0;entryX=0;entryY=0.5;entryDx=0;entryDy=0;endArrow=none;endFill=0;" parent="1" source="uEfLk0wBRHDGrHvoji_M-25" target="uEfLk0wBRHDGrHvoji_M-19" edge="1">
          <mxGeometry relative="1" as="geometry" />
        </mxCell>
        <mxCell id="uEfLk0wBRHDGrHvoji_M-28" style="edgeStyle=none;rounded=0;orthogonalLoop=1;jettySize=auto;html=1;exitX=1;exitY=0.5;exitDx=0;exitDy=0;entryX=0;entryY=0.5;entryDx=0;entryDy=0;endArrow=none;endFill=0;" parent="1" source="uEfLk0wBRHDGrHvoji_M-25" target="uEfLk0wBRHDGrHvoji_M-20" edge="1">
          <mxGeometry relative="1" as="geometry" />
        </mxCell>
        <mxCell id="uEfLk0wBRHDGrHvoji_M-29" style="edgeStyle=none;rounded=0;orthogonalLoop=1;jettySize=auto;html=1;exitX=1;exitY=0.5;exitDx=0;exitDy=0;endArrow=none;endFill=0;entryX=0;entryY=0.5;entryDx=0;entryDy=0;startArrow=none;" parent="1" source="uEfLk0wBRHDGrHvoji_M-25" target="uEfLk0wBRHDGrHvoji_M-21" edge="1">
          <mxGeometry relative="1" as="geometry" />
        </mxCell>
        <mxCell id="uEfLk0wBRHDGrHvoji_M-25" value="" style="ellipse;whiteSpace=wrap;html=1;" parent="1" vertex="1">
          <mxGeometry x="20" y="260" width="290" height="280" as="geometry" />
        </mxCell>
        <mxCell id="uEfLk0wBRHDGrHvoji_M-3" style="rounded=0;orthogonalLoop=1;jettySize=auto;html=1;exitX=0.5;exitY=1;exitDx=0;exitDy=0;endArrow=none;endFill=0;" parent="1" source="uEfLk0wBRHDGrHvoji_M-1" target="uEfLk0wBRHDGrHvoji_M-2" edge="1">
          <mxGeometry relative="1" as="geometry" />
        </mxCell>
        <mxCell id="uEfLk0wBRHDGrHvoji_M-5" style="edgeStyle=none;rounded=0;orthogonalLoop=1;jettySize=auto;html=1;exitX=0.5;exitY=1;exitDx=0;exitDy=0;entryX=0;entryY=0;entryDx=0;entryDy=0;endArrow=none;endFill=0;" parent="1" source="uEfLk0wBRHDGrHvoji_M-1" target="uEfLk0wBRHDGrHvoji_M-4" edge="1">
          <mxGeometry relative="1" as="geometry" />
        </mxCell>
        <mxCell id="uEfLk0wBRHDGrHvoji_M-1" value="u1" style="ellipse;whiteSpace=wrap;html=1;aspect=fixed;fillColor=#d5e8d4;strokeColor=#82b366;" parent="1" vertex="1">
          <mxGeometry x="110" y="296.25" width="30" height="30" as="geometry" />
        </mxCell>
        <mxCell id="uEfLk0wBRHDGrHvoji_M-7" style="edgeStyle=none;rounded=0;orthogonalLoop=1;jettySize=auto;html=1;exitX=0.5;exitY=1;exitDx=0;exitDy=0;endArrow=none;endFill=0;" parent="1" source="uEfLk0wBRHDGrHvoji_M-2" target="uEfLk0wBRHDGrHvoji_M-6" edge="1">
          <mxGeometry relative="1" as="geometry" />
        </mxCell>
        <mxCell id="uEfLk0wBRHDGrHvoji_M-2" value="i1" style="ellipse;whiteSpace=wrap;html=1;aspect=fixed;fillColor=#dae8fc;strokeColor=#6c8ebf;" parent="1" vertex="1">
          <mxGeometry x="60" y="366.25" width="30" height="30" as="geometry" />
        </mxCell>
        <mxCell id="uEfLk0wBRHDGrHvoji_M-12" style="edgeStyle=none;rounded=0;orthogonalLoop=1;jettySize=auto;html=1;exitX=0.5;exitY=1;exitDx=0;exitDy=0;entryX=0.5;entryY=0;entryDx=0;entryDy=0;endArrow=none;endFill=0;" parent="1" source="uEfLk0wBRHDGrHvoji_M-4" target="uEfLk0wBRHDGrHvoji_M-9" edge="1">
          <mxGeometry relative="1" as="geometry" />
        </mxCell>
        <mxCell id="uEfLk0wBRHDGrHvoji_M-4" value="i2" style="ellipse;whiteSpace=wrap;html=1;aspect=fixed;fillColor=#dae8fc;strokeColor=#6c8ebf;" parent="1" vertex="1">
          <mxGeometry x="170" y="366.25" width="30" height="30" as="geometry" />
        </mxCell>
        <mxCell id="uEfLk0wBRHDGrHvoji_M-56" style="edgeStyle=none;rounded=0;orthogonalLoop=1;jettySize=auto;html=1;exitX=1;exitY=1;exitDx=0;exitDy=0;entryX=0;entryY=0.5;entryDx=0;entryDy=0;endArrow=none;endFill=0;" parent="1" source="uEfLk0wBRHDGrHvoji_M-6" target="uEfLk0wBRHDGrHvoji_M-55" edge="1">
          <mxGeometry relative="1" as="geometry" />
        </mxCell>
        <mxCell id="uEfLk0wBRHDGrHvoji_M-6" value="u2" style="ellipse;whiteSpace=wrap;html=1;aspect=fixed;fillColor=#d5e8d4;strokeColor=#82b366;" parent="1" vertex="1">
          <mxGeometry x="60" y="436.25" width="30" height="30" as="geometry" />
        </mxCell>
        <mxCell id="uEfLk0wBRHDGrHvoji_M-9" value="u3" style="ellipse;whiteSpace=wrap;html=1;aspect=fixed;fillColor=#d5e8d4;strokeColor=#82b366;" parent="1" vertex="1">
          <mxGeometry x="140" y="436.25" width="30" height="30" as="geometry" />
        </mxCell>
        <mxCell id="uEfLk0wBRHDGrHvoji_M-10" value="u4" style="ellipse;whiteSpace=wrap;html=1;aspect=fixed;fillColor=#d5e8d4;strokeColor=#82b366;" parent="1" vertex="1">
          <mxGeometry x="210" y="436.25" width="30" height="30" as="geometry" />
        </mxCell>
        <mxCell id="uEfLk0wBRHDGrHvoji_M-16" style="edgeStyle=none;rounded=0;orthogonalLoop=1;jettySize=auto;html=1;exitX=0.5;exitY=1;exitDx=0;exitDy=0;entryX=1;entryY=0;entryDx=0;entryDy=0;endArrow=none;endFill=0;" parent="1" source="uEfLk0wBRHDGrHvoji_M-15" target="uEfLk0wBRHDGrHvoji_M-10" edge="1">
          <mxGeometry relative="1" as="geometry" />
        </mxCell>
        <mxCell id="uEfLk0wBRHDGrHvoji_M-15" value="i3" style="ellipse;whiteSpace=wrap;html=1;aspect=fixed;fillColor=#dae8fc;strokeColor=#6c8ebf;" parent="1" vertex="1">
          <mxGeometry x="250" y="366.25" width="30" height="30" as="geometry" />
        </mxCell>
        <mxCell id="uEfLk0wBRHDGrHvoji_M-37" style="edgeStyle=none;rounded=0;orthogonalLoop=1;jettySize=auto;html=1;exitX=1;exitY=0.5;exitDx=0;exitDy=0;entryX=0;entryY=0.5;entryDx=0;entryDy=0;endArrow=none;endFill=0;" parent="1" source="uEfLk0wBRHDGrHvoji_M-19" target="uEfLk0wBRHDGrHvoji_M-31" edge="1">
          <mxGeometry relative="1" as="geometry" />
        </mxCell>
        <mxCell id="uEfLk0wBRHDGrHvoji_M-38" style="edgeStyle=none;rounded=0;orthogonalLoop=1;jettySize=auto;html=1;exitX=1;exitY=0.5;exitDx=0;exitDy=0;entryX=0;entryY=0.5;entryDx=0;entryDy=0;endArrow=none;endFill=0;" parent="1" source="uEfLk0wBRHDGrHvoji_M-19" target="uEfLk0wBRHDGrHvoji_M-36" edge="1">
          <mxGeometry relative="1" as="geometry" />
        </mxCell>
        <mxCell id="uEfLk0wBRHDGrHvoji_M-19" value="sub-dataset-1&lt;br&gt;user-item interaction" style="rounded=0;whiteSpace=wrap;html=1;" parent="1" vertex="1">
          <mxGeometry x="440" y="260" width="120" height="60" as="geometry" />
        </mxCell>
        <mxCell id="uEfLk0wBRHDGrHvoji_M-41" style="edgeStyle=none;rounded=0;orthogonalLoop=1;jettySize=auto;html=1;exitX=1;exitY=0.5;exitDx=0;exitDy=0;entryX=0;entryY=0.5;entryDx=0;entryDy=0;endArrow=none;endFill=0;" parent="1" source="uEfLk0wBRHDGrHvoji_M-20" target="uEfLk0wBRHDGrHvoji_M-39" edge="1">
          <mxGeometry relative="1" as="geometry" />
        </mxCell>
        <mxCell id="uEfLk0wBRHDGrHvoji_M-42" style="edgeStyle=none;rounded=0;orthogonalLoop=1;jettySize=auto;html=1;exitX=1;exitY=0.5;exitDx=0;exitDy=0;entryX=0;entryY=0.5;entryDx=0;entryDy=0;endArrow=none;endFill=0;" parent="1" source="uEfLk0wBRHDGrHvoji_M-20" target="uEfLk0wBRHDGrHvoji_M-40" edge="1">
          <mxGeometry relative="1" as="geometry" />
        </mxCell>
        <mxCell id="uEfLk0wBRHDGrHvoji_M-20" value="sub-dataset-2&lt;br&gt;user-item interaction" style="rounded=0;whiteSpace=wrap;html=1;" parent="1" vertex="1">
          <mxGeometry x="440" y="340" width="120" height="60" as="geometry" />
        </mxCell>
        <mxCell id="uEfLk0wBRHDGrHvoji_M-45" style="edgeStyle=none;rounded=0;orthogonalLoop=1;jettySize=auto;html=1;exitX=1;exitY=0.5;exitDx=0;exitDy=0;entryX=0;entryY=0.5;entryDx=0;entryDy=0;endArrow=none;endFill=0;" parent="1" source="uEfLk0wBRHDGrHvoji_M-21" target="uEfLk0wBRHDGrHvoji_M-43" edge="1">
          <mxGeometry relative="1" as="geometry" />
        </mxCell>
        <mxCell id="uEfLk0wBRHDGrHvoji_M-46" style="edgeStyle=none;rounded=0;orthogonalLoop=1;jettySize=auto;html=1;exitX=1;exitY=0.5;exitDx=0;exitDy=0;entryX=0;entryY=0.5;entryDx=0;entryDy=0;endArrow=none;endFill=0;" parent="1" source="uEfLk0wBRHDGrHvoji_M-21" target="uEfLk0wBRHDGrHvoji_M-44" edge="1">
          <mxGeometry relative="1" as="geometry" />
        </mxCell>
        <mxCell id="uEfLk0wBRHDGrHvoji_M-21" value="sub-dataset-N&lt;br&gt;user-item interaction" style="rounded=0;whiteSpace=wrap;html=1;" parent="1" vertex="1">
          <mxGeometry x="440" y="470" width="120" height="60" as="geometry" />
        </mxCell>
        <mxCell id="uEfLk0wBRHDGrHvoji_M-22" value="..." style="text;html=1;align=center;verticalAlign=middle;resizable=0;points=[];autosize=1;strokeColor=none;fillColor=none;" parent="1" vertex="1">
          <mxGeometry x="485" y="430" width="30" height="20" as="geometry" />
        </mxCell>
        <mxCell id="uEfLk0wBRHDGrHvoji_M-26" value="dataset" style="text;html=1;align=center;verticalAlign=middle;resizable=0;points=[];autosize=1;strokeColor=none;fillColor=none;" parent="1" vertex="1">
          <mxGeometry x="190" y="296.25" width="50" height="20" as="geometry" />
        </mxCell>
        <mxCell id="uEfLk0wBRHDGrHvoji_M-48" style="edgeStyle=none;rounded=0;orthogonalLoop=1;jettySize=auto;html=1;exitX=1;exitY=0.5;exitDx=0;exitDy=0;entryX=0;entryY=0.5;entryDx=0;entryDy=0;endArrow=none;endFill=0;" parent="1" source="uEfLk0wBRHDGrHvoji_M-31" target="uEfLk0wBRHDGrHvoji_M-47" edge="1">
          <mxGeometry relative="1" as="geometry" />
        </mxCell>
        <mxCell id="uEfLk0wBRHDGrHvoji_M-31" value="user feature 1" style="rounded=0;whiteSpace=wrap;html=1;fillColor=#d5e8d4;strokeColor=#82b366;" parent="1" vertex="1">
          <mxGeometry x="690" y="257.5" width="120" height="30" as="geometry" />
        </mxCell>
        <mxCell id="uEfLk0wBRHDGrHvoji_M-34" value="&lt;span&gt;GNN-based &lt;br&gt;user &lt;br&gt;classifi&lt;/span&gt;&lt;span&gt;cation&lt;/span&gt;" style="ellipse;shape=cloud;whiteSpace=wrap;html=1;" parent="1" vertex="1">
          <mxGeometry x="320" y="340" width="105" height="120" as="geometry" />
        </mxCell>
        <mxCell id="uEfLk0wBRHDGrHvoji_M-49" style="edgeStyle=none;rounded=0;orthogonalLoop=1;jettySize=auto;html=1;exitX=1;exitY=0.5;exitDx=0;exitDy=0;entryX=0;entryY=0.5;entryDx=0;entryDy=0;endArrow=none;endFill=0;" parent="1" source="uEfLk0wBRHDGrHvoji_M-36" target="uEfLk0wBRHDGrHvoji_M-47" edge="1">
          <mxGeometry relative="1" as="geometry" />
        </mxCell>
        <mxCell id="uEfLk0wBRHDGrHvoji_M-36" value="item feature 1" style="rounded=0;whiteSpace=wrap;html=1;fillColor=#dae8fc;strokeColor=#6c8ebf;" parent="1" vertex="1">
          <mxGeometry x="690" y="297.5" width="120" height="30" as="geometry" />
        </mxCell>
        <mxCell id="uEfLk0wBRHDGrHvoji_M-50" style="edgeStyle=none;rounded=0;orthogonalLoop=1;jettySize=auto;html=1;exitX=1;exitY=0.5;exitDx=0;exitDy=0;entryX=0;entryY=0.5;entryDx=0;entryDy=0;endArrow=none;endFill=0;" parent="1" source="uEfLk0wBRHDGrHvoji_M-39" target="uEfLk0wBRHDGrHvoji_M-47" edge="1">
          <mxGeometry relative="1" as="geometry" />
        </mxCell>
        <mxCell id="uEfLk0wBRHDGrHvoji_M-39" value="user feature 2" style="rounded=0;whiteSpace=wrap;html=1;fillColor=#d5e8d4;strokeColor=#82b366;" parent="1" vertex="1">
          <mxGeometry x="690" y="342.5" width="120" height="30" as="geometry" />
        </mxCell>
        <mxCell id="uEfLk0wBRHDGrHvoji_M-51" style="edgeStyle=none;rounded=0;orthogonalLoop=1;jettySize=auto;html=1;exitX=1;exitY=0.5;exitDx=0;exitDy=0;entryX=0;entryY=0.5;entryDx=0;entryDy=0;endArrow=none;endFill=0;" parent="1" source="uEfLk0wBRHDGrHvoji_M-40" target="uEfLk0wBRHDGrHvoji_M-47" edge="1">
          <mxGeometry relative="1" as="geometry" />
        </mxCell>
        <mxCell id="uEfLk0wBRHDGrHvoji_M-40" value="item feature 2" style="rounded=0;whiteSpace=wrap;html=1;fillColor=#dae8fc;strokeColor=#6c8ebf;" parent="1" vertex="1">
          <mxGeometry x="690" y="382.5" width="120" height="30" as="geometry" />
        </mxCell>
        <mxCell id="uEfLk0wBRHDGrHvoji_M-52" style="edgeStyle=none;rounded=0;orthogonalLoop=1;jettySize=auto;html=1;exitX=1;exitY=0.5;exitDx=0;exitDy=0;entryX=0;entryY=0.5;entryDx=0;entryDy=0;endArrow=none;endFill=0;" parent="1" source="uEfLk0wBRHDGrHvoji_M-43" target="uEfLk0wBRHDGrHvoji_M-47" edge="1">
          <mxGeometry relative="1" as="geometry" />
        </mxCell>
        <mxCell id="uEfLk0wBRHDGrHvoji_M-43" value="user feature N" style="rounded=0;whiteSpace=wrap;html=1;fillColor=#d5e8d4;strokeColor=#82b366;" parent="1" vertex="1">
          <mxGeometry x="690" y="472.5" width="120" height="30" as="geometry" />
        </mxCell>
        <mxCell id="uEfLk0wBRHDGrHvoji_M-53" style="edgeStyle=none;rounded=0;orthogonalLoop=1;jettySize=auto;html=1;exitX=1;exitY=0.5;exitDx=0;exitDy=0;entryX=0;entryY=0.5;entryDx=0;entryDy=0;endArrow=none;endFill=0;" parent="1" source="uEfLk0wBRHDGrHvoji_M-44" target="uEfLk0wBRHDGrHvoji_M-47" edge="1">
          <mxGeometry relative="1" as="geometry" />
        </mxCell>
        <mxCell id="uEfLk0wBRHDGrHvoji_M-44" value="item feature N" style="rounded=0;whiteSpace=wrap;html=1;fillColor=#dae8fc;strokeColor=#6c8ebf;" parent="1" vertex="1">
          <mxGeometry x="690" y="512.5" width="120" height="30" as="geometry" />
        </mxCell>
        <mxCell id="uEfLk0wBRHDGrHvoji_M-47" value="predicted y" style="rounded=0;whiteSpace=wrap;html=1;" parent="1" vertex="1">
          <mxGeometry x="897" y="392.5" width="83" height="30" as="geometry" />
        </mxCell>
        <mxCell id="uEfLk0wBRHDGrHvoji_M-54" value="&lt;span&gt;Matrix Factorization&lt;br&gt;&lt;/span&gt;" style="ellipse;shape=cloud;whiteSpace=wrap;html=1;" parent="1" vertex="1">
          <mxGeometry x="580" y="340" width="105" height="120" as="geometry" />
        </mxCell>
        <mxCell id="uEfLk0wBRHDGrHvoji_M-55" value="i4" style="ellipse;whiteSpace=wrap;html=1;aspect=fixed;fillColor=#dae8fc;strokeColor=#6c8ebf;" parent="1" vertex="1">
          <mxGeometry x="160" y="488.75" width="30" height="30" as="geometry" />
        </mxCell>
      </root>
    </mxGraphModel>
  </diagram>
  <diagram id="id40pSbCmXI5RGmAzsEU" name="Page-2">
    <mxGraphModel dx="1368" dy="744" grid="1" gridSize="10" guides="1" tooltips="1" connect="1" arrows="1" fold="1" page="1" pageScale="1" pageWidth="827" pageHeight="1169" math="0" shadow="0">
      <root>
        <mxCell id="7kc-QeH8NEiVoyIw2RkB-0" />
        <mxCell id="7kc-QeH8NEiVoyIw2RkB-1" parent="7kc-QeH8NEiVoyIw2RkB-0" />
        <mxCell id="7kc-QeH8NEiVoyIw2RkB-13" style="rounded=0;orthogonalLoop=1;jettySize=auto;html=1;exitX=1;exitY=0.3333333333333333;exitDx=0;exitDy=0;exitPerimeter=0;entryX=0;entryY=0.5;entryDx=0;entryDy=0;endArrow=none;endFill=0;" edge="1" parent="7kc-QeH8NEiVoyIw2RkB-1" source="7kc-QeH8NEiVoyIw2RkB-9" target="7kc-QeH8NEiVoyIw2RkB-10">
          <mxGeometry relative="1" as="geometry" />
        </mxCell>
        <mxCell id="7kc-QeH8NEiVoyIw2RkB-14" style="edgeStyle=none;rounded=0;orthogonalLoop=1;jettySize=auto;html=1;exitX=1;exitY=0.3333333333333333;exitDx=0;exitDy=0;exitPerimeter=0;entryX=0;entryY=0.5;entryDx=0;entryDy=0;endArrow=none;endFill=0;" edge="1" parent="7kc-QeH8NEiVoyIw2RkB-1" source="7kc-QeH8NEiVoyIw2RkB-9" target="7kc-QeH8NEiVoyIw2RkB-11">
          <mxGeometry relative="1" as="geometry" />
        </mxCell>
        <mxCell id="7kc-QeH8NEiVoyIw2RkB-15" style="edgeStyle=none;rounded=0;orthogonalLoop=1;jettySize=auto;html=1;exitX=1;exitY=0.3333333333333333;exitDx=0;exitDy=0;exitPerimeter=0;entryX=0;entryY=0.5;entryDx=0;entryDy=0;endArrow=none;endFill=0;" edge="1" parent="7kc-QeH8NEiVoyIw2RkB-1" source="7kc-QeH8NEiVoyIw2RkB-9" target="7kc-QeH8NEiVoyIw2RkB-12">
          <mxGeometry relative="1" as="geometry" />
        </mxCell>
        <mxCell id="7kc-QeH8NEiVoyIw2RkB-9" value="用户需求" style="shape=umlActor;verticalLabelPosition=bottom;verticalAlign=top;html=1;outlineConnect=0;fillColor=none;" vertex="1" parent="7kc-QeH8NEiVoyIw2RkB-1">
          <mxGeometry x="210" y="510" width="30" height="60" as="geometry" />
        </mxCell>
        <mxCell id="7kc-QeH8NEiVoyIw2RkB-10" value="个性化推荐" style="ellipse;whiteSpace=wrap;html=1;fillColor=none;" vertex="1" parent="7kc-QeH8NEiVoyIw2RkB-1">
          <mxGeometry x="370" y="390" width="120" height="80" as="geometry" />
        </mxCell>
        <mxCell id="7kc-QeH8NEiVoyIw2RkB-11" value="遵循内容导向" style="ellipse;whiteSpace=wrap;html=1;fillColor=none;" vertex="1" parent="7kc-QeH8NEiVoyIw2RkB-1">
          <mxGeometry x="380" y="500" width="120" height="80" as="geometry" />
        </mxCell>
        <mxCell id="7kc-QeH8NEiVoyIw2RkB-12" value="高可信内容" style="ellipse;whiteSpace=wrap;html=1;fillColor=none;" vertex="1" parent="7kc-QeH8NEiVoyIw2RkB-1">
          <mxGeometry x="380" y="620" width="120" height="80" as="geometry" />
        </mxCell>
      </root>
    </mxGraphModel>
  </diagram>
</mxfile>
